PathFileType	4	(X/Y/Z)	D:\TRACE\v60_Jaco2_6-2-23\JustBodyDRS_Motion1_5-platform.trc
DataRate	CameraRate	NumFrames	NumMarkers	Units	OrigDataRate	OrigDataStartFrame	OrigNumFrames
100.00	100.00	      67	5	mm	100.00	1676	      6702
Frame#	Time	Left_Front			Right_Front			Left_Aft			Right_Aft			Post			
		X1	Y1	Z1	X2	Y2	Z2	X3	Y3	Z3	X4	Y4	Z4	X5	Y5	Z5	

1676	16.750	-834.73853	29.48700	-633.65167	735.44733	30.36902	-638.70502	-742.46552	-6.48923	501.31052	698.94415	-8.71602	510.34940	-47.71395	1337.75244	-915.93005	
1677	16.760	-835.65161	29.00091	-633.66541	734.64264	29.77618	-638.95709	-743.19293	-6.36100	501.15344	698.05078	-8.52595	510.31845	-48.98787	1337.53296	-916.49542	
1678	16.770	-836.02399	28.61817	-633.79218	733.82916	29.60821	-638.87067	-744.35077	-6.01684	501.14587	697.28381	-8.43475	510.21588	-49.33038	1336.95996	-917.07220	
1679	16.780	-836.51672	28.59421	-633.56085	733.01349	29.61035	-638.88177	-745.13617	-5.82106	501.10162	696.85925	-8.15954	510.16507	-50.15131	1336.61169	-917.75018	
1680	16.790	-837.65967	28.60660	-633.62653	732.45160	29.50618	-638.87408	-745.55280	-5.64462	501.20029	695.83740	-7.84649	510.32159	-50.99982	1336.28210	-918.66370	
1681	16.800	-838.67352	28.25570	-633.63275	731.68542	29.30057	-638.93866	-746.40045	-5.37830	501.20538	695.50977	-7.74333	510.29779	-51.48392	1336.01733	-919.27484	
1682	16.810	-839.19086	27.99021	-633.95355	730.75897	28.85859	-639.24927	-747.19574	-5.28065	501.10666	694.40417	-7.77179	510.30832	-52.61599	1335.64197	-920.15521	
1683	16.820	-839.66779	27.42604	-634.08807	730.22302	28.36802	-639.14355	-747.88873	-5.15667	500.91412	693.83551	-7.46861	510.13144	-53.05284	1335.05786	-920.59003	
1684	16.830	-840.37524	27.16106	-633.83911	729.50201	28.14793	-639.17120	-748.50507	-5.03191	500.83926	692.82153	-7.60532	510.15765	-53.46140	1334.58850	-920.86774	
1685	16.840	-840.88635	27.09900	-633.97382	728.84131	28.01366	-639.24634	-749.32501	-4.65732	500.75668	692.94983	-6.54350	509.84061	-54.14280	1334.32336	-921.34387	
1686	16.850	-841.83191	27.07292	-634.04016	728.17175	27.71298	-639.32660	-750.05017	-4.35741	500.81592	692.36676	-6.06153	509.86575	-55.01659	1333.87061	-921.98676	
1687	16.860	-842.78217	26.62777	-634.21484	727.43176	27.42160	-639.46637	-750.45929	-4.11523	500.86612	692.01575	-5.87542	509.83020	-55.74312	1333.33521	-922.45044	
1688	16.870	-843.30310	26.30971	-634.38586	726.78223	27.06330	-639.65070	-750.82452	-4.07445	500.70334	689.71808	-6.69198	510.17624	-56.57961	1333.07385	-923.29144	
1689	16.880	-843.71301	25.93413	-634.42798	726.40222	26.76645	-639.56622	-751.80756	-3.94185	500.40994	689.72827	-5.99842	509.92200	-57.08850	1332.66309	-924.16986	
1690	16.890	-843.98523	25.82197	-634.42560	725.74658	26.39176	-639.66724	-752.55481	-3.55872	500.45477	689.20880	-6.06706	509.69055	-57.50568	1332.19739	-925.04987	
1691	16.900	-844.64337	25.34937	-634.32782	725.11090	26.16451	-639.84009	-753.09253	-3.28624	500.36688	688.88165	-5.84638	509.69543	-58.01720	1331.65015	-925.84406	
1692	16.910	-845.35583	25.07439	-634.34711	724.48914	25.91680	-639.98047	-753.52515	-2.96518	500.37079	688.28320	-5.40521	509.73889	-58.30262	1331.26538	-926.28259	
1693	16.920	-845.88287	24.86385	-634.64594	724.00995	25.43575	-639.93231	-753.75336	-2.92097	500.37106	688.34424	-4.70815	509.34680	-59.64916	1331.01392	-927.10010	
1694	16.930	-846.57123	24.36127	-634.68048	723.65613	25.16006	-640.01251	-754.31256	-2.81970	500.36938	687.80798	-4.56803	509.40906	-59.90536	1330.50012	-927.63849	
1695	16.940	-846.95386	23.76456	-634.74243	723.30017	24.84523	-640.08057	-755.03986	-2.64397	500.30377	687.13965	-4.23225	509.26968	-60.04056	1329.78088	-928.13062	
1696	16.950	-847.50391	23.53156	-635.04480	722.57574	24.32222	-640.32996	-755.47437	-2.33095	500.17175	686.98407	-3.81871	509.20386	-60.70025	1329.45227	-928.75824	
1697	16.960	-847.69226	23.32935	-635.02661	722.20203	24.02929	-640.30414	-755.87708	-1.97487	500.04520	686.28052	-3.89093	509.24823	-61.11789	1329.03955	-929.38306	
1698	16.970	-847.96533	22.99304	-634.87878	721.83429	23.83050	-640.25867	-756.15430	-1.65068	499.97424	685.68958	-3.65156	509.00873	-61.46426	1328.48230	-929.78064	
1699	16.980	-848.52710	22.44343	-635.13940	721.37830	23.43970	-640.37988	-756.48260	-1.44851	499.81940	685.25500	-3.23555	508.88733	-61.92643	1327.80920	-930.70972	
1700	16.990	-848.75806	22.23990	-635.08240	720.93878	23.09714	-640.52100	-756.73523	-1.32955	499.80157	685.17950	-3.00093	508.79544	-62.03640	1327.42981	-932.02460	
1701	17.000	-849.00916	21.95008	-635.41296	720.57922	22.54580	-640.77472	-757.09827	-1.22915	499.79095	684.96118	-2.81971	508.88303	-62.31092	1326.99561	-932.81879	
1702	17.010	-849.31049	21.71557	-635.55878	720.33575	22.18039	-640.76404	-757.44098	-1.00779	499.77008	684.72760	-2.55286	508.74008	-62.63067	1326.27734	-934.40454	
1703	17.020	-849.74750	21.42087	-635.37067	720.18372	21.91485	-640.75690	-757.91284	-0.40599	499.60989	684.50714	-1.97826	508.64655	-62.85050	1325.88879	-934.88983	
1704	17.030	-850.07312	20.87142	-635.42603	719.95612	21.61024	-640.95966	-758.02728	-0.10282	499.49368	684.44885	-1.70702	508.56955	-63.18367	1325.51880	-935.74890	
1705	17.040	-850.37115	20.47198	-635.58844	719.91034	21.43580	-640.98383	-758.19141	0.04380	499.40811	684.10712	-1.68410	508.49619	-63.52196	1324.98376	-936.77863	
1706	17.050	-850.38495	19.99129	-635.75262	719.80762	21.02132	-641.10736	-758.32013	0.24623	499.31656	683.82111	-1.36472	508.32095	-63.54630	1324.21875	-937.44977	
1707	17.060	-850.61743	19.66511	-635.89185	719.51642	20.24185	-641.31519	-758.58789	0.54086	499.15240	683.94861	-0.73469	508.39175	-63.63700	1323.47803	-937.99268	
1708	17.070	-850.76703	19.54766	-636.07831	719.35535	19.89391	-641.44958	-758.71057	0.78502	499.04294	683.30573	-0.80037	508.28244	-63.67683	1323.11194	-938.40503	
1709	17.080	-850.89771	19.33848	-636.16138	719.17590	19.73689	-641.59045	-758.70715	1.00496	499.03204	683.30432	-0.42940	508.06888	-63.88752	1322.55640	-939.41760	
1710	17.090	-851.07269	18.76640	-636.15985	719.21887	19.44527	-641.56824	-758.71027	1.26536	498.88419	683.26947	-0.19257	507.90286	-64.18544	1321.92200	-940.19238	
1711	17.100	-851.00049	18.25281	-636.29095	719.30090	18.61547	-641.53455	-758.77698	1.52345	498.79398	683.27429	0.06806	507.88367	-64.32431	1321.45459	-940.84393	
1712	17.110	-850.89282	17.51126	-636.67731	719.05823	18.10785	-641.77350	-758.83868	1.80385	498.67813	683.21466	0.50322	507.86966	-64.13151	1320.73499	-941.98395	
1713	17.120	-850.90332	17.21469	-636.79102	718.95752	17.85728	-641.91577	-758.65430	1.78149	498.97656	682.95270	0.65421	507.84457	-64.37489	1319.85095	-943.11896	
1714	17.130	-850.91760	17.09799	-636.93646	719.01929	17.44582	-642.06354	-758.90460	2.53129	498.51480	682.96021	0.92814	507.74719	-64.07108	1319.18445	-944.60376	
1715	17.140	-851.01764	16.68157	-636.88983	719.12134	16.96995	-642.10077	-758.89813	2.87557	498.45154	682.86444	1.20574	507.64114	-64.32905	1318.76575	-945.86499	
1716	17.150	-850.94098	15.81480	-636.82922	719.20270	16.63005	-642.13861	-758.92218	3.28595	498.26434	682.79938	1.53065	507.46356	-64.53728	1318.06775	-947.19159	
1717	17.160	-850.86389	15.23808	-636.91974	719.18475	16.38524	-642.19397	-759.01276	3.57232	498.09286	682.85303	2.12361	507.40564	-64.40180	1317.56592	-947.98303	
1718	17.170	-850.79919	14.84957	-637.33588	719.07281	15.72183	-642.41223	-759.01483	3.67932	498.00195	683.06287	2.44433	507.29153	-64.25672	1316.97937	-949.28247	
1719	17.180	-850.74927	14.68746	-637.47723	719.13947	15.06246	-642.55823	-758.96155	3.94562	497.95547	683.02368	2.58690	507.20593	-64.24898	1316.23608	-949.93970	
1720	17.190	-850.71161	14.49866	-637.48553	719.18488	14.70608	-642.66504	-758.88873	4.24374	497.87619	683.09009	2.69363	507.06158	-64.20022	1315.57080	-950.41779	
1721	17.200	-850.58478	14.13527	-637.43481	719.27887	14.59185	-642.78387	-758.78876	4.61475	497.79144	683.19891	3.30388	506.96841	-64.17605	1315.03845	-951.28510	
1722	17.210	-850.40973	13.52923	-637.53088	719.61426	14.21127	-642.92877	-758.66937	5.00377	497.69510	683.90045	3.74840	506.75339	-64.33866	1314.48718	-951.74469	
1723	17.220	-850.09589	12.84079	-637.68451	720.02820	13.60031	-642.97064	-758.41998	5.39158	497.54620	684.18323	4.10752	506.69846	-63.40741	1313.63721	-952.04462	
1724	17.230	-849.83582	12.06662	-637.59564	720.29095	13.09014	-643.10950	-758.21783	5.71231	497.42349	684.45355	4.48093	506.59998	-63.14134	1312.87793	-953.15100	
1725	17.240	-849.69098	11.54685	-637.84204	720.43579	12.61046	-643.21979	-757.88904	6.09197	497.31607	684.64063	4.72404	506.49265	-63.49440	1312.25330	-954.08380	
1726	17.250	-849.51367	11.45214	-637.60553	720.69360	12.09249	-643.40930	-757.45148	6.36427	497.21146	684.74677	5.04361	506.35904	-62.73453	1311.47083	-955.55005	
1727	17.260	-849.22632	10.90319	-637.85052	720.78656	11.63961	-643.50000	-757.12421	6.73638	497.00928	684.88635	5.40442	506.24573	-62.70254	1310.55981	-957.30200	
1728	17.270	-848.93707	10.38826	-638.25726	721.08893	11.23046	-643.55792	-756.85352	6.98122	496.92731	684.97296	5.79666	506.23471	-62.70737	1310.20093	-958.91010	
1729	17.280	-848.53009	9.96618	-638.80420	721.40503	10.65688	-643.65088	-756.63422	7.24590	496.82578	685.15833	6.21067	506.10791	-61.76965	1309.45227	-960.04700	
1730	17.290	-848.22076	9.67560	-638.92749	721.77362	10.11298	-643.72040	-756.26959	7.46480	496.69858	685.74268	6.44107	505.95404	-61.63574	1308.51611	-961.77692	
1731	17.300	-847.86975	9.33489	-638.88104	721.97705	9.70433	-643.96942	-756.01343	7.81536	496.65149	686.41559	6.90155	505.90088	-61.24237	1308.03992	-962.90381	
1732	17.310	-847.45685	8.79194	-638.68085	722.42841	9.34899	-643.96423	-755.72162	8.22546	496.71783	686.80188	7.14142	505.86990	-61.00852	1307.39490	-963.89642	
1733	17.320	-847.20197	8.12382	-638.71039	722.99658	8.84545	-643.94916	-755.20795	8.59376	496.65790	687.20941	7.43330	505.71689	-60.53918	1306.63940	-964.71899	
1734	17.330	-846.78998	7.37767	-638.58063	723.34888	8.28427	-644.20251	-754.80420	8.87852	496.46225	687.44397	7.68636	505.52167	-59.80229	1305.80591	-965.38147	
1735	17.340	-846.24042	6.88827	-638.53760	723.77985	7.80370	-644.33398	-754.38599	9.10786	496.23340	687.55988	8.00064	505.32767	-59.60774	1305.25415	-965.84119	
1736	17.350	-845.75018	6.43458	-639.20917	724.10400	7.40916	-644.50177	-753.95825	9.55993	496.14233	688.09882	8.34226	505.10822	-59.38332	1304.69006	-966.13507	
1737	17.360	-845.35236	6.04419	-639.44287	724.38141	7.03404	-644.66296	-753.58685	9.93913	496.02426	688.82501	8.99818	505.11737	-58.88311	1303.83289	-966.76617	
1738	17.370	-845.13763	5.58684	-639.57202	725.04181	6.48813	-644.72351	-753.19641	10.30741	495.90399	689.18549	9.33862	505.03284	-58.75306	1302.97253	-967.51544	
1739	17.380	-844.71735	5.26952	-639.60443	725.44788	6.16120	-644.68250	-752.86084	10.71473	495.78189	689.71301	9.69951	504.88721	-58.18336	1302.48120	-968.77881	
1740	17.390	-844.22943	4.89938	-639.69904	725.99530	5.73273	-644.85583	-752.20996	11.16407	495.69586	690.16577	9.98196	504.73029	-57.60226	1301.52856	-970.03699	
1741	17.400	-843.58099	4.27025	-639.79431	726.47827	4.92349	-645.29370	-751.80157	11.35420	495.67685	690.55768	10.14520	504.59094	-57.08065	1300.79724	-971.36243	
1742	17.410	-843.08618	3.74834	-639.83093	726.90924	4.43351	-645.33014	-751.47955	11.63571	495.54272	691.11792	10.59912	504.49112	-56.96187	1300.21045	-973.01617	
